<svg xmlns="http://www.w3.org/2000/svg" viewBox="0 0 1910 290">
  <g transform="translate(0 20) scale(0.244)">
<path fill-rule="evenodd" fill="#C2410C" d="M498.00 369.81C493.68 370.71 481.02 372.85 474.00 374.81C466.98 376.78 465.48 377.48 459.00 380.72C452.52 383.95 445.10 387.70 438.00 392.80C430.90 397.89 424.47 404.10 419.58 409.00C414.68 413.90 413.64 416.04 410.80 420.00C407.96 423.96 406.67 425.42 403.80 431.00C400.92 436.58 397.37 443.26 394.81 451.00C392.26 458.74 390.55 466.26 389.60 474.00C388.64 481.74 389.10 488.06 389.50 494.00C389.90 499.94 390.50 501.78 391.81 507.00C393.13 512.22 394.84 517.96 396.81 523.00C398.79 528.04 400.15 530.68 402.80 535.00C405.44 539.32 407.01 542.14 411.50 547.00C415.99 551.86 422.05 557.81 427.72 562.00C433.39 566.19 437.19 567.87 443.00 570.28C448.81 572.70 454.78 574.28 460.00 575.40C465.22 576.52 466.96 576.68 472.00 576.50C477.04 576.32 483.32 575.36 488.00 574.40C492.68 573.45 494.22 572.84 498.00 571.19C501.78 569.53 505.94 567.13 509.00 565.20C512.06 563.28 512.84 562.47 515.00 560.50C517.16 558.53 518.45 557.61 521.00 554.28C523.55 550.95 526.95 546.73 529.19 542.00C531.42 537.27 532.63 532.68 533.40 528.00C534.18 523.32 534.27 520.68 533.50 516.00C532.73 511.32 530.56 505.60 529.11 502.00C527.66 498.40 526.71 497.80 525.42 496.00C524.14 494.20 523.13 493.06 521.97 492.00C520.81 490.94 519.71 490.30 519.00 490.12C518.29 489.94 517.97 489.76 518.05 491.00C518.12 492.24 519.14 494.84 519.40 497.00C519.67 499.16 519.72 500.66 519.50 503.00C519.28 505.34 519.32 506.94 518.19 510.00C517.05 513.06 515.22 517.08 513.20 520.00C511.19 522.92 509.02 524.53 507.00 526.20C504.98 527.88 504.34 528.21 502.00 529.28C499.66 530.36 497.24 531.61 494.00 532.19C490.76 532.77 487.24 532.86 484.00 532.50C480.76 532.14 478.88 531.50 476.00 530.19C473.12 528.87 470.06 526.68 468.00 525.20C465.94 523.73 466.07 523.84 464.58 522.00C463.08 520.16 461.11 517.70 459.72 515.00C458.32 512.30 457.57 509.70 456.81 507.00C456.05 504.30 455.72 502.16 455.50 500.00C455.28 497.84 455.18 497.52 455.60 495.00C456.01 492.48 456.70 489.06 457.81 486.00C458.93 482.94 459.96 480.97 461.80 478.00C463.63 475.03 465.08 472.44 468.00 469.53C470.92 466.61 474.40 464.08 478.00 461.80C481.60 459.51 484.40 458.13 488.00 456.81C491.60 455.50 493.50 454.90 498.00 454.50C502.50 454.10 509.04 454.36 513.00 454.60C516.96 454.83 517.12 455.05 520.00 455.81C522.88 456.57 525.94 457.56 529.00 458.81C532.06 460.07 533.76 460.86 537.00 462.80C540.24 464.73 542.86 465.99 547.00 469.58C551.14 473.16 555.47 476.88 560.00 482.72C564.53 488.56 569.27 496.55 572.19 502.00C575.10 507.45 574.89 508.68 576.19 513.00C577.49 517.32 578.63 522.04 579.40 526.00C580.18 529.96 580.30 529.78 580.50 535.00C580.70 540.22 581.28 547.44 580.50 555.00C579.72 562.56 577.68 570.88 576.19 577.00C574.69 583.12 574.16 584.32 572.19 589.00C570.21 593.68 569.29 596.70 565.20 603.00C561.12 609.30 555.84 617.30 549.50 624.00C543.16 630.70 535.49 636.21 530.00 640.20C524.51 644.20 524.06 643.88 519.00 646.19C513.94 648.49 504.76 651.53 501.88 653.00C499.00 654.47 500.46 654.09 503.00 654.36C505.54 654.63 509.34 655.07 516.00 654.50C522.66 653.93 531.18 653.22 540.00 651.19C548.82 649.15 557.44 646.24 565.00 643.19C572.56 640.13 576.78 637.26 582.00 634.20C587.22 631.15 589.14 629.98 594.00 626.20C598.86 622.42 603.38 619.00 609.00 613.21C614.62 607.41 620.85 599.80 625.20 594.00C629.56 588.20 630.51 585.86 633.20 581.00C635.90 576.14 638.21 571.50 640.19 567.00C642.16 562.50 642.53 561.58 644.19 556.00C645.85 550.42 648.09 543.02 649.40 536.00C650.72 528.98 651.12 522.22 651.50 517.00C651.88 511.78 652.10 513.48 651.50 507.00C650.90 500.52 649.32 487.84 648.19 481.00C647.05 474.16 646.79 474.04 645.19 469.00C643.58 463.96 641.62 458.40 639.28 453.00C636.95 447.60 634.78 443.55 632.20 439.00C629.63 434.45 627.92 431.76 625.00 427.72C622.08 423.67 620.14 421.05 616.00 416.53C611.86 412.00 606.32 406.49 602.00 402.58C597.68 398.66 596.14 397.65 592.00 394.80C587.86 391.94 584.22 389.59 579.00 386.72C573.78 383.84 568.58 381.14 563.00 378.81C557.42 376.49 555.02 375.49 548.00 373.81C540.98 372.14 533.00 370.22 524.00 369.50C515.00 368.78 502.68 369.76 498.00 369.81C493.32 369.87 502.32 368.91 498.00 369.81ZM387.50 316.00C431.33 315.91 584.11 315.17 631.00 315.50C677.89 315.83 642.24 316.51 648.00 317.81C653.76 319.11 659.22 321.28 663.00 322.72C666.78 324.15 666.07 323.94 669.00 325.80C671.93 327.65 675.86 330.13 679.28 333.00C682.70 335.87 684.95 338.12 688.00 341.72C691.05 345.32 694.01 349.53 696.20 353.00C698.40 356.47 698.75 357.40 700.19 361.00C701.62 364.60 703.05 368.68 704.19 373.00C705.32 377.32 706.08 337.66 706.50 385.00C706.92 432.34 706.92 588.48 706.50 636.00C706.08 683.52 705.85 643.42 704.19 649.00C702.53 654.58 700.30 661.24 697.28 667.00C694.27 672.76 690.49 677.22 687.42 681.00C684.36 684.78 683.06 685.62 680.28 688.00C677.50 690.38 675.47 692.01 672.00 694.20C668.53 696.40 664.96 698.39 661.00 700.19C657.04 701.98 654.32 703.05 650.00 704.19C645.68 705.32 684.70 706.08 637.00 706.50C589.30 706.92 432.52 706.92 385.00 706.50C337.48 706.08 378.40 705.86 373.00 704.19C367.60 702.51 360.22 699.86 355.00 697.20C349.78 694.55 348.14 693.01 344.00 689.42C339.86 685.84 335.10 680.78 332.00 677.28C328.90 673.78 328.81 673.65 326.80 670.00C324.78 666.35 322.67 662.76 320.81 657.00C318.96 651.24 317.28 645.74 316.50 638.00C315.72 630.26 316.68 619.22 316.50 614.00C316.32 608.78 315.68 619.26 315.50 609.00C315.32 598.74 315.34 567.08 315.50 557.00C315.66 546.92 316.40 555.52 316.40 553.00C316.40 550.48 315.66 552.72 315.50 543.00C315.34 533.28 315.32 507.82 315.50 499.00C315.68 490.18 316.32 498.32 316.50 494.00C316.68 489.68 316.64 479.14 316.50 475.00C316.36 470.86 315.70 472.44 315.70 471.00C315.70 469.56 316.36 471.68 316.50 467.00C316.64 462.32 316.64 449.68 316.50 445.00C316.36 440.32 315.70 442.44 315.70 441.00C315.70 439.56 316.36 441.50 316.50 437.00C316.64 432.50 316.68 420.68 316.50 416.00C316.32 411.32 315.68 414.42 315.50 411.00C315.32 407.58 315.32 400.42 315.50 397.00C315.68 393.58 316.30 394.70 316.50 392.00C316.70 389.30 315.82 386.86 316.60 382.00C317.37 377.14 319.34 369.68 320.81 365.00C322.29 360.32 322.50 359.96 324.80 356.00C327.09 352.04 330.20 347.14 333.58 343.00C336.95 338.86 339.85 336.10 343.53 333.00C347.20 329.90 349.77 328.17 354.00 325.80C358.23 323.42 362.32 321.47 367.00 319.81C371.68 318.16 376.31 317.28 380.00 316.60C383.69 315.91 386.15 316.11 387.50 316.00C388.85 315.89 343.67 316.09 387.50 316.00Z"></path>
  </g>
  <text x="290" y="220" font-family="Nunito, &#39;Segoe UI&#39;, system-ui, sans-serif" font-weight="800" font-size="220" letter-spacing="-2" fill="#2A1F1A">GoneSquirrel<tspan fill="#15803D">.io</tspan></text>
</svg>