<svg xmlns="http://www.w3.org/2000/svg" viewBox="0 0 630 638">
<path fill-rule="evenodd" fill="#C2410C" d="M156.00 31.81C154.74 31.95 151.93 32.02 149.00 32.60C146.07 33.17 141.55 34.39 139.73 35.00C137.91 35.61 138.98 35.64 138.91 36.00C138.83 36.36 138.40 36.49 139.32 37.00C140.24 37.51 142.90 38.11 144.00 38.83C145.10 39.55 145.22 40.00 145.40 41.00C145.58 42.00 145.61 43.11 145.00 44.41C144.39 45.71 143.98 46.98 142.00 48.20C140.02 49.42 138.14 50.00 134.00 51.19C129.86 52.38 124.94 52.92 119.00 54.81C113.06 56.71 106.76 59.02 101.00 61.72C95.24 64.41 91.50 66.77 87.00 69.80C82.50 72.82 80.40 74.50 76.00 78.50C71.60 82.50 66.57 87.59 62.58 92.00C58.58 96.41 56.28 99.58 53.80 103.00C51.32 106.42 51.13 106.50 48.80 111.00C46.46 115.50 43.37 120.98 40.81 128.00C38.26 135.02 35.73 144.78 34.60 150.00C33.46 155.22 34.70 154.84 34.50 157.00C34.30 159.16 33.68 157.50 33.50 162.00C33.32 166.50 33.30 176.78 33.50 182.00C33.70 187.22 34.00 187.76 34.60 191.00C35.19 194.24 35.35 195.86 36.81 200.00C38.27 204.14 40.34 209.45 42.72 214.00C45.09 218.55 46.70 221.14 50.00 225.28C53.30 229.42 57.07 233.58 61.03 237.00C64.99 240.42 67.51 241.91 72.00 244.28C76.49 246.66 82.22 248.89 86.00 250.19C89.78 251.49 89.58 251.26 93.00 251.50C96.42 251.74 101.04 251.92 105.00 251.50C108.96 251.08 112.12 249.96 115.00 249.19C117.88 248.41 118.48 248.26 121.00 247.19C123.52 246.11 126.66 244.59 129.00 243.20C131.34 241.82 132.47 240.98 134.00 239.50C135.53 238.02 136.88 236.17 137.50 235.00C138.12 233.83 139.31 234.04 137.42 233.00C135.53 231.96 129.60 230.39 127.00 229.20C124.40 228.02 124.62 227.85 123.00 226.42C121.38 225.00 119.89 223.88 118.00 221.28C116.11 218.68 113.79 214.57 112.50 212.00C111.21 209.43 111.34 209.34 110.81 207.00C110.29 204.66 109.60 202.24 109.60 199.00C109.60 195.76 110.06 192.24 110.81 189.00C111.57 185.76 111.96 184.15 113.80 181.00C115.63 177.85 117.90 174.51 121.00 171.50C124.10 168.49 128.12 166.03 131.00 164.28C133.88 162.54 133.94 162.55 137.00 161.81C140.06 161.08 144.40 160.19 148.00 160.19C151.60 160.19 153.40 160.62 157.00 161.81C160.60 163.00 164.94 165.05 168.00 166.80C171.06 168.54 171.62 169.12 174.00 171.50C176.38 173.88 179.37 177.39 181.20 180.00C183.04 182.61 182.89 182.22 184.19 186.00C185.48 189.78 187.64 194.88 188.40 201.00C189.16 207.12 188.98 214.24 188.40 220.00C187.82 225.76 186.84 228.14 185.19 233.00C183.53 237.86 181.54 242.32 179.20 247.00C176.87 251.68 175.80 253.42 172.20 259.00C168.60 264.58 166.26 268.51 159.20 278.00C152.15 287.49 140.81 301.28 133.00 311.72C125.19 322.16 120.71 328.57 115.80 336.00C110.88 343.43 108.41 347.96 105.72 353.00C103.02 358.04 102.78 358.96 100.81 364.00C98.85 369.04 96.65 374.52 94.81 381.00C92.97 387.48 91.54 394.96 90.60 400.00C89.66 405.04 89.79 402.52 89.60 409.00C89.40 415.48 89.14 428.44 89.50 436.00C89.86 443.56 90.35 444.34 91.60 451.00C92.84 457.66 95.71 468.68 96.40 473.00C97.09 477.32 96.04 474.26 95.42 475.00C94.81 475.74 93.80 476.71 93.00 477.11C92.20 477.50 92.44 477.61 91.00 477.19C89.56 476.76 86.26 475.18 85.00 474.75C83.74 474.32 84.27 474.57 84.00 474.79C83.73 475.02 82.30 472.00 83.52 476.00C84.75 480.00 88.26 490.70 90.81 497.00C93.37 503.30 93.98 504.88 97.72 511.00C101.45 517.12 105.76 524.08 111.58 531.00C117.39 537.92 124.34 544.35 130.00 549.42C135.66 554.50 138.68 556.18 143.00 559.20C147.32 562.22 149.86 563.87 154.00 566.20C158.14 568.54 161.32 570.21 166.00 572.19C170.68 574.16 175.86 575.89 180.00 577.19C184.14 578.49 183.42 578.81 189.00 579.40C194.58 580.00 204.34 580.68 211.00 580.50C217.66 580.32 221.14 579.29 226.00 578.40C230.86 577.52 234.40 575.51 238.00 575.60C241.60 575.68 242.11 576.84 246.00 578.89C249.89 580.94 256.17 585.29 259.59 587.00C263.01 588.71 261.92 590.02 265.00 588.40C268.08 586.78 274.20 580.14 276.72 578.00C279.24 575.86 278.23 576.79 279.00 576.50C279.77 576.21 280.50 576.10 281.00 576.37C281.50 576.64 281.77 577.35 281.80 578.00C281.84 578.65 282.29 578.20 281.20 580.00C280.12 581.80 277.18 585.48 275.80 588.00C274.41 590.52 273.86 592.38 273.50 594.00C273.14 595.62 273.54 596.11 273.81 597.00C274.08 597.89 273.71 597.99 275.00 598.97C276.29 599.94 276.32 601.77 281.00 602.40C285.68 603.04 296.50 602.30 301.00 602.50C305.50 602.70 303.48 603.32 306.00 603.50C308.52 603.68 312.48 603.68 315.00 603.50C317.52 603.32 307.76 602.68 320.00 602.50C332.24 602.32 370.76 602.32 383.00 602.50C395.24 602.68 384.94 603.32 388.00 603.50C391.06 603.68 394.42 603.14 400.00 603.50C405.58 603.86 410.72 605.22 419.00 605.50C427.28 605.78 440.95 605.34 446.00 605.07C451.05 604.80 446.87 604.55 447.07 604.00C447.27 603.45 447.66 603.17 447.11 602.00C446.56 600.83 445.46 599.18 444.00 597.53C442.54 595.87 441.16 594.18 439.00 592.80C436.84 591.41 435.24 590.77 432.00 589.81C428.76 588.86 426.58 587.74 421.00 587.50C415.42 587.26 405.50 588.14 401.00 588.50C396.50 588.86 399.60 589.32 396.00 589.50C392.40 589.68 384.60 589.75 381.00 589.50C377.40 589.25 377.28 588.74 376.00 588.11C374.72 587.48 374.32 587.28 373.89 586.00C373.46 584.72 373.25 582.98 373.60 581.00C373.94 579.02 372.48 579.27 375.80 575.00C379.11 570.73 387.23 563.40 392.00 557.28C396.77 551.16 399.55 545.91 402.28 541.00C405.02 536.09 405.91 533.78 407.19 530.00C408.47 526.22 408.81 523.24 409.40 520.00C410.00 516.76 410.30 514.52 410.50 512.00C410.70 509.48 410.68 507.98 410.50 506.00C410.32 504.02 409.70 506.04 409.50 501.00C409.30 495.96 410.54 485.02 409.40 478.00C408.27 470.98 405.80 466.86 403.20 462.00C400.61 457.14 397.56 453.89 395.00 450.97C392.44 448.06 392.35 448.13 389.00 445.80C385.65 443.46 381.27 440.34 376.41 438.00C371.55 435.66 366.21 433.98 362.00 432.81C357.79 431.64 356.60 431.74 353.00 431.50C349.40 431.26 345.42 431.30 342.00 431.50C338.58 431.70 337.42 431.82 334.00 432.60C330.58 433.37 326.42 434.52 323.00 435.81C319.58 437.11 318.42 437.82 315.00 439.80C311.58 441.77 307.24 444.38 304.00 446.80C300.76 449.21 298.62 452.06 297.00 453.19C295.38 454.32 295.55 453.28 295.00 453.07C294.45 452.85 294.13 452.91 293.93 452.00C293.73 451.09 293.06 449.98 293.89 448.00C294.73 446.02 296.58 443.43 298.58 441.00C300.57 438.57 301.86 437.06 305.00 434.50C308.14 431.94 311.86 429.08 316.00 426.80C320.14 424.51 323.68 423.11 328.00 421.81C332.32 420.52 334.78 420.01 340.00 419.60C345.22 419.18 351.60 419.10 357.00 419.50C362.40 419.90 364.60 420.15 370.00 421.81C375.40 423.47 381.78 426.03 387.00 428.72C392.22 431.40 396.48 435.24 399.00 436.72C401.52 438.19 400.46 437.03 401.00 436.92C401.54 436.81 401.03 437.89 402.00 436.10C402.97 434.31 405.65 429.00 406.39 427.00C407.12 425.00 409.21 427.79 406.08 425.00C402.95 422.21 392.87 414.74 389.00 411.50C385.13 408.26 387.31 410.33 384.58 407.00C381.84 403.67 376.63 397.32 373.80 393.00C370.96 388.68 369.93 385.52 368.81 383.00C367.70 380.48 367.74 380.10 367.60 379.00C367.45 377.90 367.39 377.65 368.00 376.90C368.61 376.15 370.10 375.17 371.00 374.81C371.90 374.45 372.28 374.58 373.00 374.89C373.72 375.20 372.30 373.36 375.00 376.53C377.70 379.69 382.96 386.91 388.00 392.47C393.04 398.03 397.96 403.15 403.00 407.42C408.04 411.70 412.04 413.91 416.00 416.20C419.96 418.50 421.58 419.07 425.00 420.19C428.42 421.30 430.86 421.97 435.00 422.40C439.14 422.84 444.94 422.25 448.00 422.60C451.06 422.94 447.50 424.51 452.00 424.30C456.50 424.09 465.80 422.93 473.00 421.40C480.20 419.88 486.42 417.22 492.00 415.81C497.58 414.41 500.94 414.00 504.00 413.60C507.06 413.20 505.40 412.89 509.00 413.60C512.60 414.30 519.68 416.81 524.00 417.50C528.32 418.19 530.48 417.78 533.00 417.40C535.52 417.02 536.69 416.73 538.00 415.39C539.31 414.06 540.22 411.87 540.30 410.00C540.38 408.13 539.51 406.62 538.42 405.00C537.34 403.38 536.70 402.76 534.28 401.00C531.86 399.24 527.57 397.02 525.00 395.20C522.43 393.38 521.44 391.79 520.00 390.89C518.56 389.99 520.24 389.92 517.00 390.19C513.76 390.46 505.96 391.99 502.00 392.40C498.04 392.82 498.60 392.86 495.00 392.50C491.40 392.14 487.76 392.06 482.00 390.40C476.24 388.74 468.27 385.70 463.00 383.28C457.73 380.87 456.22 379.57 452.72 377.00C449.22 374.43 446.80 372.78 443.58 369.00C440.35 365.22 437.45 360.86 434.80 356.00C432.14 351.14 430.11 345.96 428.81 342.00C427.52 338.04 427.38 336.02 427.60 334.00C427.81 331.98 429.21 331.46 430.00 330.80C430.79 330.13 431.40 330.25 432.00 330.28C432.60 330.32 431.20 327.45 433.32 331.00C435.45 334.55 440.70 344.96 443.80 350.00C446.89 355.04 448.30 356.40 450.50 359.00C452.70 361.60 453.39 362.23 456.00 364.42C458.61 366.62 462.12 369.28 465.00 371.20C467.88 373.13 470.18 374.43 472.00 375.11C473.82 375.79 474.31 375.38 475.10 375.00C475.89 374.62 476.15 376.60 476.40 373.00C476.66 369.40 476.25 359.68 476.50 355.00C476.75 350.32 476.86 350.96 477.81 347.00C478.77 343.04 479.76 338.22 481.81 333.00C483.86 327.78 487.89 320.97 489.19 318.00C490.48 315.03 489.21 316.92 489.00 316.50C488.79 316.08 488.90 315.87 488.00 315.69C487.10 315.51 485.98 315.34 484.00 315.50C482.02 315.66 480.24 315.64 477.00 316.60C473.76 317.55 469.82 317.84 466.00 320.80C462.18 323.75 458.68 328.74 455.80 333.00C452.92 337.26 451.40 342.16 450.00 344.46C448.60 346.77 448.63 345.89 448.00 345.81C447.37 345.72 446.87 344.86 446.50 344.00C446.13 343.14 445.48 342.96 445.93 341.00C446.38 339.04 447.08 336.36 449.00 333.12C450.92 329.88 453.73 326.16 456.61 323.00C459.49 319.84 462.95 317.23 465.00 315.58C467.05 313.92 465.66 314.85 468.00 313.81C470.34 312.78 474.04 311.07 478.00 309.81C481.96 308.55 483.70 307.79 490.00 306.81C496.30 305.84 506.34 305.42 513.00 304.40C519.66 303.39 523.60 302.16 527.00 301.19C530.40 300.21 531.03 299.57 531.88 299.00C532.74 298.43 532.72 298.90 531.77 298.00C530.82 297.10 528.58 296.16 526.61 294.00C524.63 291.84 522.07 288.70 520.81 286.00C519.55 283.30 519.56 280.95 519.60 279.00C519.63 277.05 520.39 276.13 521.00 275.19C521.61 274.26 522.28 274.04 523.00 273.81C523.72 273.59 524.46 273.76 525.00 273.93C525.54 274.11 525.32 273.70 526.00 274.79C526.68 275.89 527.59 278.16 528.80 280.00C530.00 281.84 531.06 283.53 532.72 285.00C534.38 286.47 535.79 287.21 538.00 288.19C540.21 289.16 542.12 290.04 545.00 290.40C547.88 290.76 551.12 290.94 554.00 290.19C556.88 289.43 558.03 288.22 561.00 286.20C563.97 284.19 568.00 281.38 570.50 279.00C573.00 276.62 575.53 276.24 574.87 273.00C574.20 269.76 568.50 264.06 566.81 261.00C565.13 257.94 565.60 257.62 565.50 256.00C565.40 254.38 565.83 253.15 566.28 252.00C566.73 250.85 567.15 250.36 568.00 249.61C568.85 248.85 569.38 248.37 571.00 247.81C572.62 247.25 574.30 246.61 577.00 246.50C579.70 246.39 584.20 247.17 586.00 247.20C587.80 247.22 586.73 247.02 587.00 246.62C587.27 246.23 587.65 246.19 587.50 245.00C587.35 243.81 587.32 243.06 586.19 240.00C585.05 236.94 584.05 234.12 581.19 228.00C578.32 221.88 573.70 212.48 570.28 206.00C566.87 199.52 566.49 198.48 562.20 192.00C557.92 185.52 551.85 176.48 546.50 170.00C541.15 163.52 536.11 159.42 532.47 156.00C528.83 152.58 528.53 152.66 526.28 151.00C524.04 149.34 523.29 148.63 520.00 146.80C516.71 144.96 513.22 142.97 508.00 140.81C502.78 138.66 497.66 136.65 491.00 134.81C484.34 132.97 476.22 131.37 471.00 130.60C465.78 129.82 464.52 130.70 462.00 130.50C459.48 130.30 458.98 129.50 457.00 129.50C455.02 129.50 453.52 130.30 451.00 130.50C448.48 130.70 444.80 130.34 443.00 130.60C441.20 130.85 441.45 131.29 441.00 131.90C440.55 132.51 440.25 131.10 440.50 134.00C440.75 136.90 442.31 145.11 442.40 148.00C442.49 150.89 441.81 149.71 441.00 150.07C440.19 150.43 438.83 150.55 437.90 150.00C436.97 149.45 437.56 151.50 435.81 147.00C434.06 142.50 431.18 132.20 428.19 125.00C425.20 117.80 421.94 111.91 419.20 107.00C416.47 102.09 416.64 102.30 413.00 97.72C409.36 93.13 402.06 84.79 399.00 81.53C395.94 78.27 396.90 79.84 396.00 79.60C395.10 79.35 395.11 78.46 394.00 80.16C392.89 81.85 391.47 83.99 389.81 89.00C388.16 94.01 385.93 101.88 384.81 108.00C383.69 114.12 383.60 118.50 383.60 123.00C383.60 127.50 383.87 128.86 384.81 133.00C385.75 137.14 386.66 140.96 388.81 146.00C390.97 151.04 394.19 156.50 396.80 161.00C399.40 165.50 401.91 168.30 403.28 171.00C404.65 173.70 404.45 174.73 404.40 176.00C404.35 177.27 403.79 177.67 403.00 178.07C402.21 178.46 401.98 179.26 400.00 178.19C398.02 177.12 393.62 173.18 392.00 172.12C390.38 171.07 391.56 171.79 391.00 172.31C390.44 172.82 390.01 172.36 388.89 175.00C387.78 177.64 386.13 182.50 384.81 187.00C383.50 191.50 382.93 192.26 381.60 200.00C380.26 207.74 378.56 222.80 377.40 230.00C376.25 237.20 376.13 236.58 375.19 240.00C374.25 243.42 373.62 245.58 372.19 249.00C370.75 252.42 369.67 255.04 367.20 259.00C364.74 262.96 362.23 266.68 358.50 271.00C354.77 275.32 350.65 279.22 346.47 283.00C342.29 286.78 340.77 288.18 335.28 292.00C329.80 295.82 324.15 299.56 316.00 304.20C307.85 308.85 297.02 313.91 290.00 317.80C282.98 321.68 282.85 321.62 277.00 325.80C271.15 329.97 262.46 336.82 257.53 341.00C252.59 345.18 253.49 344.32 249.58 349.00C245.66 353.68 239.70 361.42 235.80 367.00C231.89 372.58 230.77 374.60 227.89 380.00C225.01 385.40 222.53 390.16 219.81 397.00C217.10 403.84 214.83 410.44 212.81 418.00C210.79 425.56 209.55 433.78 208.60 439.00C207.64 444.22 207.70 439.80 207.50 447.00C207.30 454.20 206.72 469.28 207.50 479.00C208.28 488.72 210.14 493.80 211.81 501.00C213.49 508.20 213.83 510.00 216.81 519.00C219.80 528.00 226.32 544.70 228.40 551.00C230.49 557.30 228.64 553.10 228.40 554.00C228.17 554.90 228.07 555.62 227.10 556.00C226.13 556.38 224.85 557.37 223.00 556.11C221.15 554.85 219.53 552.98 216.80 549.00C214.06 545.02 210.87 541.02 207.81 534.00C204.76 526.98 202.37 520.08 199.81 510.00C197.25 499.92 194.73 488.44 193.60 478.00C192.46 467.56 193.14 460.10 193.50 452.00C193.86 443.90 194.46 440.20 195.60 433.00C196.73 425.80 198.15 418.66 199.81 412.00C201.47 405.34 202.67 401.76 204.81 396.00C206.96 390.24 208.66 386.12 211.72 380.00C214.77 373.88 218.68 367.09 221.80 362.00C224.91 356.91 224.64 356.98 229.00 351.72C233.36 346.46 241.50 337.50 246.00 332.79C250.50 328.09 250.76 328.27 254.00 325.58C257.24 322.88 258.61 321.50 264.00 317.80C269.39 314.09 279.61 308.38 283.97 305.00C288.33 301.62 286.53 301.88 288.20 299.00C289.88 296.12 290.23 296.38 293.28 289.00C296.34 281.62 302.14 266.28 305.19 258.00C308.23 249.72 308.53 248.58 310.19 243.00C311.85 237.42 312.92 234.38 314.40 227.00C315.88 219.62 317.67 207.76 318.40 202.00C319.14 196.24 318.30 197.16 318.50 195.00C318.70 192.84 319.52 195.40 319.50 190.00C319.48 184.60 318.96 171.66 318.40 165.00C317.85 158.34 317.70 159.12 316.40 153.00C315.10 146.88 313.37 138.20 311.19 131.00C309.01 123.80 306.62 118.40 304.28 113.00C301.95 107.60 300.60 105.19 298.20 101.00C295.81 96.81 294.28 94.03 291.00 89.72C287.72 85.40 283.42 80.66 280.00 77.03C276.58 73.41 276.09 73.00 272.00 69.58C267.91 66.15 261.42 61.02 257.28 58.00C253.14 54.98 253.37 55.17 249.00 52.80C244.63 50.42 237.86 46.97 233.00 44.81C228.14 42.66 228.48 42.65 222.00 40.81C215.52 38.97 204.02 36.08 197.00 34.60C189.98 33.12 187.32 32.97 183.00 32.60C178.68 32.22 175.70 32.70 173.00 32.50C170.30 32.30 171.06 31.62 168.00 31.50C164.94 31.38 158.16 31.76 156.00 31.81C153.84 31.87 157.26 31.67 156.00 31.81ZM163.50 20.00C165.93 19.93 168.27 18.73 177.00 19.60C185.73 20.46 202.10 22.79 212.00 24.81C221.90 26.83 226.96 29.19 232.00 30.81C237.04 32.43 236.40 32.21 240.00 33.81C243.60 35.42 246.60 36.66 252.00 39.72C257.40 42.77 264.42 46.87 270.00 50.80C275.58 54.72 278.50 57.37 283.00 61.50C287.50 65.63 291.36 69.49 295.00 73.72C298.64 77.95 300.09 80.27 303.20 85.00C306.32 89.73 309.23 94.24 312.28 100.00C315.34 105.76 317.68 110.70 320.19 117.00C322.69 123.30 324.17 126.00 326.19 135.00C328.21 144.00 330.43 159.98 331.40 167.00C332.38 174.02 331.40 172.02 331.60 174.00C331.79 175.98 332.34 174.76 332.50 178.00C332.66 181.24 333.24 184.08 332.50 192.00C331.76 199.92 330.08 212.64 328.40 222.00C326.73 231.36 325.75 235.54 323.19 244.00C320.63 252.46 316.51 262.88 314.19 269.00C311.86 275.12 312.52 273.50 310.28 278.00C308.04 282.50 303.24 290.73 301.75 294.00C300.26 297.27 301.42 295.93 302.00 296.15C302.58 296.36 302.12 296.81 305.00 295.20C307.88 293.59 312.06 291.29 318.00 287.20C323.94 283.12 331.84 277.76 338.00 272.50C344.16 267.24 348.40 262.41 352.20 258.00C356.00 253.59 356.95 251.96 359.11 248.00C361.27 244.04 362.87 240.14 364.19 236.00C365.50 231.86 365.61 230.58 366.40 225.00C367.20 219.42 367.44 211.84 368.60 205.00C369.75 198.16 370.97 192.94 372.81 187.00C374.65 181.06 376.96 175.96 378.81 172.00C380.67 168.04 382.26 166.62 383.11 165.00C383.95 163.38 383.50 163.72 383.50 163.00C383.50 162.28 383.60 161.90 383.11 161.00C382.62 160.10 382.29 160.70 380.80 158.00C379.30 155.30 376.43 149.78 374.81 146.00C373.20 142.22 372.59 140.06 371.81 137.00C371.04 133.94 370.72 133.68 370.50 129.00C370.28 124.32 370.00 116.94 370.60 111.00C371.19 105.06 372.15 102.12 373.81 96.00C375.47 89.88 378.02 81.86 379.81 77.00C381.61 72.14 382.50 71.00 383.80 69.00C385.09 67.00 385.70 66.68 387.00 65.89C388.30 65.10 389.20 64.78 391.00 64.60C392.80 64.42 393.76 63.28 397.00 64.89C400.24 66.51 405.76 70.94 409.00 73.58C412.24 76.21 412.30 76.44 415.00 79.53C417.70 82.61 421.80 87.75 424.00 90.72C426.20 93.68 425.55 92.89 427.20 96.00C428.86 99.11 431.19 103.50 433.19 108.00C435.18 112.50 437.06 118.31 438.28 121.00C439.51 123.69 439.51 122.58 440.00 122.93C440.49 123.27 440.63 123.09 441.00 122.92C441.37 122.75 441.80 122.53 442.07 122.00C442.34 121.47 442.60 121.26 442.50 120.00C442.40 118.74 441.68 117.52 441.50 115.00C441.32 112.48 441.30 109.06 441.50 106.00C441.70 102.94 442.00 101.42 442.60 98.00C443.19 94.58 443.69 91.14 444.81 87.00C445.93 82.86 447.20 78.78 448.81 75.00C450.43 71.22 451.78 68.97 453.80 66.00C455.81 63.03 458.16 60.33 460.00 58.50C461.84 56.67 462.53 56.26 464.00 55.81C465.47 55.36 466.74 55.30 468.18 56.00C469.62 56.70 469.48 56.30 472.00 59.72C474.52 63.14 479.11 69.55 482.20 75.00C485.30 80.45 487.17 84.42 489.19 90.00C491.20 95.58 492.54 100.22 493.40 106.00C494.27 111.78 493.35 118.83 494.00 122.10C494.65 125.37 493.76 122.98 497.00 124.19C500.24 125.40 507.86 127.28 512.00 128.81C516.14 130.35 514.96 129.70 520.00 132.72C525.04 135.73 534.15 141.02 540.00 145.58C545.85 150.13 549.18 154.50 552.50 158.00C555.82 161.50 554.34 159.42 558.42 165.00C562.51 170.58 569.11 178.56 575.20 189.00C581.30 199.44 588.51 215.26 592.28 223.00C596.06 230.74 594.94 228.58 596.19 232.00C597.43 235.42 598.43 238.22 599.19 242.00C599.95 245.78 600.40 249.94 600.40 253.00C600.40 256.06 600.14 255.94 599.19 259.00C598.23 262.06 597.05 266.22 595.11 270.00C593.17 273.78 590.96 276.85 588.42 280.00C585.89 283.15 583.60 285.12 581.00 287.50C578.40 289.88 576.70 291.26 574.00 293.20C571.30 295.15 569.96 296.11 566.00 298.28C562.04 300.46 556.68 303.14 552.00 305.28C547.32 307.43 546.48 308.37 540.00 310.19C533.52 312.01 521.94 314.43 516.00 315.40C510.06 316.38 509.37 315.31 507.00 315.60C504.63 315.88 504.46 315.67 502.82 317.00C501.18 318.33 499.87 319.04 497.89 323.00C495.91 326.96 492.95 335.58 491.81 339.00C490.68 342.42 491.24 340.56 491.60 342.00C491.95 343.44 492.64 345.02 493.80 347.00C494.95 348.98 495.47 350.44 498.03 353.00C500.59 355.56 505.13 359.33 508.00 361.20C510.87 363.08 512.56 363.22 514.00 363.40C515.44 363.58 514.20 364.35 516.00 362.21C517.80 360.06 521.30 354.27 524.00 351.50C526.70 348.73 528.30 348.06 531.00 346.81C533.70 345.57 536.12 345.07 539.00 344.60C541.88 344.12 543.58 344.91 547.00 344.19C550.42 343.47 555.48 341.24 558.00 340.60C560.52 339.95 559.74 340.35 561.00 340.60C562.26 340.84 564.10 341.83 565.00 341.98C565.90 342.12 564.60 343.93 566.00 341.42C567.40 338.90 571.18 330.87 572.80 328.00C574.42 325.13 573.52 326.61 575.00 325.50C576.48 324.39 579.02 322.48 581.00 321.81C582.98 321.15 584.56 321.50 586.00 321.81C587.44 322.13 588.06 322.82 589.00 323.58C589.94 324.33 590.27 324.48 591.20 326.00C592.14 327.52 593.61 330.20 594.19 332.00C594.76 333.80 594.62 334.89 594.40 336.00C594.19 337.11 594.15 337.30 593.00 338.17C591.85 339.03 589.89 339.57 588.00 340.80C586.11 342.03 583.97 343.52 582.50 345.00C581.03 346.48 580.26 347.98 579.81 349.00C579.36 350.02 577.40 348.89 580.00 350.69C582.60 352.49 589.96 355.75 594.28 359.00C598.60 362.25 601.50 365.48 604.00 368.72C606.50 371.96 607.07 374.43 608.19 377.00C609.30 379.57 609.79 380.48 610.19 383.00C610.59 385.52 610.80 388.25 610.40 391.00C610.01 393.75 609.15 396.22 608.00 398.28C606.85 400.34 605.63 401.04 604.00 402.42C602.37 403.81 600.34 403.20 598.93 406.00C597.53 408.80 597.40 413.86 596.19 418.00C594.97 422.14 593.98 425.04 592.19 429.00C590.39 432.96 588.22 436.95 586.20 440.00C584.19 443.05 583.56 443.59 581.00 445.97C578.44 448.35 575.42 451.01 572.00 453.20C568.58 455.40 565.60 456.66 562.00 458.19C558.40 459.72 555.60 460.02 552.00 461.72C548.40 463.41 544.52 466.58 542.00 467.60C539.48 468.63 539.08 467.67 538.00 467.40C536.92 467.13 537.04 467.79 536.00 466.10C534.96 464.41 535.30 462.34 532.20 458.00C529.11 453.66 522.40 447.58 518.80 442.00C515.20 436.42 513.79 430.08 512.20 427.00C510.62 423.92 511.48 425.29 510.00 424.89C508.52 424.50 508.86 423.75 504.00 424.81C499.14 425.88 487.50 429.30 483.00 430.81C478.50 432.33 479.74 431.03 479.00 433.23C478.26 435.42 477.81 440.03 478.89 443.00C479.97 445.97 483.14 447.38 485.00 449.72C486.86 452.06 487.37 452.53 489.20 456.00C491.04 459.47 493.69 464.68 495.19 469.00C496.68 473.32 497.10 474.96 497.50 480.00C497.90 485.04 497.82 491.78 497.40 497.00C496.99 502.22 496.13 505.22 495.19 509.00C494.25 512.78 493.46 514.76 492.19 518.00C490.91 521.24 490.45 522.68 488.11 527.00C485.77 531.32 482.39 537.32 479.20 542.00C476.02 546.68 473.43 549.58 470.42 553.00C467.42 556.42 463.99 559.20 462.50 561.00C461.01 562.80 461.52 562.55 462.15 563.00C462.78 563.45 464.41 563.59 466.00 563.50C467.59 563.41 467.04 562.66 471.00 562.50C474.96 562.34 482.78 562.00 488.00 562.60C493.22 563.19 495.86 564.16 500.00 565.81C504.14 567.47 507.90 569.42 511.00 571.80C514.10 574.17 515.67 576.44 517.20 579.00C518.73 581.56 519.10 584.02 519.50 586.00C519.90 587.98 519.62 588.74 519.40 590.00C519.18 591.26 518.72 592.10 518.28 593.00C517.84 593.90 517.92 594.08 516.97 595.00C516.02 595.92 516.05 597.30 513.00 598.11C509.95 598.92 508.82 599.23 500.00 599.50C491.18 599.77 470.85 599.33 464.00 599.60C457.15 599.87 462.63 599.13 461.93 601.00C461.23 602.87 460.93 607.66 460.11 610.00C459.29 612.34 458.85 612.71 457.39 614.00C455.94 615.29 453.87 616.38 452.00 617.19C450.13 618.00 454.20 618.44 447.00 618.50C439.80 618.56 421.54 618.04 412.00 617.50C402.46 616.96 401.56 615.86 394.00 615.50C386.44 615.14 375.22 615.68 370.00 615.50C364.78 615.32 367.52 614.68 365.00 614.50C362.48 614.32 358.52 614.32 356.00 614.50C353.48 614.68 359.82 615.32 351.00 615.50C342.18 615.68 315.82 615.68 307.00 615.50C298.18 615.32 307.04 614.70 302.00 614.50C296.96 614.30 284.94 615.00 279.00 614.40C273.06 613.81 271.52 612.49 269.00 611.20C266.48 609.92 266.26 608.97 265.00 607.28C263.74 605.59 264.16 603.47 262.00 601.83C259.84 600.20 257.14 600.59 253.00 598.20C248.86 595.82 242.06 590.29 239.00 588.60C235.94 586.91 237.62 588.35 236.00 588.81C234.38 589.28 233.42 590.36 230.00 591.19C226.58 592.01 223.66 592.99 217.00 593.40C210.34 593.82 200.38 594.08 193.00 593.50C185.62 592.92 182.30 592.03 176.00 590.19C169.70 588.35 164.30 586.16 158.00 583.28C151.70 580.41 146.22 577.28 141.00 574.20C135.78 571.13 133.68 569.76 129.00 566.20C124.32 562.64 120.66 560.04 115.00 554.42C109.34 548.81 101.57 539.76 97.58 535.00C93.58 530.24 94.93 531.42 92.80 528.00C90.66 524.58 88.23 520.86 85.72 516.00C83.20 511.14 80.96 506.58 78.81 501.00C76.67 495.42 75.31 490.58 73.81 485.00C72.32 479.42 71.08 473.60 70.50 470.00C69.92 466.40 70.33 466.48 70.60 465.00C70.87 463.52 71.21 462.73 72.00 461.79C72.79 460.86 73.56 460.15 75.00 459.81C76.44 459.48 78.83 460.25 80.00 459.92C81.17 459.59 81.55 460.51 81.48 458.00C81.41 455.49 79.97 449.78 79.60 446.00C79.22 442.22 79.78 440.60 79.40 437.00C79.03 433.40 77.84 432.30 77.50 426.00C77.16 419.70 76.72 410.46 77.50 402.00C78.28 393.54 79.96 386.38 81.81 379.00C83.67 371.62 86.03 365.86 87.81 361.00C89.60 356.14 89.56 356.32 91.72 352.00C93.87 347.68 94.02 346.18 99.80 337.00C105.57 327.82 118.00 309.23 123.80 301.00C129.59 292.77 126.35 298.66 132.00 291.28C137.65 283.90 149.03 268.87 155.20 260.00C161.38 251.13 163.59 246.86 166.28 242.00C168.98 237.14 168.91 236.60 170.19 233.00C171.47 229.40 172.63 225.42 173.40 222.00C174.18 218.58 174.30 217.24 174.50 214.00C174.70 210.76 174.70 207.06 174.50 204.00C174.30 200.94 173.98 199.34 173.40 197.00C172.82 194.66 172.40 193.34 171.28 191.00C170.17 188.66 168.88 186.24 167.20 184.00C165.53 181.76 163.48 179.87 162.00 178.58C160.52 177.28 160.98 177.53 159.00 176.81C157.02 176.10 153.34 175.00 151.00 174.60C148.66 174.20 147.98 174.38 146.00 174.60C144.02 174.82 142.34 174.88 140.00 175.81C137.66 176.75 134.98 178.37 133.00 179.80C131.02 181.22 130.65 181.52 129.00 183.72C127.35 185.92 124.98 189.25 123.81 192.00C122.64 194.75 122.50 196.48 122.50 199.00C122.50 201.52 123.00 203.61 123.81 206.00C124.62 208.39 125.17 209.90 127.00 212.28C128.83 214.66 131.12 217.38 134.00 219.20C136.88 221.03 140.30 221.93 143.00 222.40C145.70 222.87 147.37 221.53 149.00 221.81C150.63 222.10 151.49 222.35 152.07 224.00C152.64 225.65 153.06 227.94 152.19 231.00C151.31 234.06 149.13 237.94 147.20 241.00C145.28 244.06 144.03 245.62 141.47 248.00C138.92 250.38 136.15 252.19 133.00 254.20C129.85 256.22 127.24 257.75 124.00 259.19C120.76 260.62 118.78 261.23 115.00 262.19C111.22 263.14 106.96 264.10 103.00 264.50C99.04 264.90 96.78 264.82 93.00 264.40C89.22 263.99 86.32 263.47 82.00 262.19C77.68 260.91 73.01 259.12 69.00 257.28C64.99 255.45 64.04 255.21 59.72 252.00C55.40 248.79 49.67 244.51 45.00 239.47C40.33 234.43 36.89 228.95 33.80 224.00C30.70 219.05 29.83 217.22 27.81 212.00C25.80 206.78 23.73 199.32 22.60 195.00C21.46 190.68 21.71 190.70 21.50 188.00C21.29 185.30 21.76 183.60 21.40 180.00C21.04 176.40 19.65 172.14 19.50 168.00C19.35 163.86 19.28 164.02 20.60 157.00C21.91 149.98 24.27 137.46 26.81 129.00C29.35 120.54 31.44 116.53 34.72 110.00C37.99 103.47 41.79 97.58 45.00 92.72C48.21 87.86 49.52 86.46 52.58 83.00C55.64 79.54 57.29 77.64 62.00 73.50C66.71 69.36 74.07 63.51 78.72 60.00C83.36 56.49 82.36 56.91 87.81 54.00C93.26 51.09 103.03 46.32 109.00 43.81C114.97 41.31 118.73 41.13 121.00 40.08C123.27 39.03 121.71 39.45 121.60 38.00C121.50 36.55 120.32 33.51 120.40 32.00C120.47 30.49 121.17 30.38 122.00 29.61C122.83 28.83 122.48 28.80 125.00 27.72C127.52 26.64 132.04 24.70 136.00 23.60C139.96 22.49 142.05 22.24 147.00 21.60C151.95 20.95 160.53 20.29 163.50 20.00C166.47 19.71 161.07 20.07 163.50 20.00ZM478.00 460.48C477.75 460.75 477.27 458.67 476.62 462.00C475.97 465.33 475.74 472.16 474.40 479.00C473.07 485.84 471.39 493.16 469.19 500.00C466.99 506.84 464.52 511.78 462.19 517.00C459.85 522.22 459.76 523.06 456.20 529.00C452.65 534.94 446.74 544.24 442.42 550.00C438.11 555.76 436.29 557.40 432.21 561.00C428.12 564.60 422.67 567.66 419.72 570.00C416.77 572.34 414.86 573.17 415.81 574.00C416.76 574.83 420.11 573.55 425.00 574.60C429.89 575.64 438.50 578.16 443.00 579.81C447.50 581.47 447.48 582.01 450.00 583.80C452.52 585.58 453.94 588.89 457.00 589.72C460.06 590.55 463.76 589.16 467.00 588.40C470.24 587.64 471.04 585.83 475.00 585.50C478.96 585.17 485.40 586.06 489.00 586.60C492.60 587.14 491.76 588.19 495.00 588.50C498.24 588.81 504.66 588.49 507.00 588.31C509.34 588.13 507.79 587.92 508.00 587.50C508.21 587.08 508.64 586.99 508.19 586.00C507.73 585.01 506.77 583.30 505.47 582.00C504.18 580.70 503.07 579.91 501.00 578.80C498.93 577.68 497.42 576.77 494.00 575.81C490.58 574.86 489.92 573.93 482.00 573.50C474.08 573.07 456.50 573.67 450.00 573.40C443.50 573.13 447.01 572.79 445.90 572.00C444.79 571.21 444.19 570.26 443.81 569.00C443.44 567.74 443.50 566.44 443.81 565.00C444.13 563.56 443.30 563.52 445.58 561.00C447.85 558.48 451.09 557.12 456.42 551.00C461.76 544.88 470.93 533.12 475.20 527.00C479.48 520.88 478.75 520.42 480.19 517.00C481.62 513.58 482.07 512.32 483.19 508.00C484.31 503.68 485.82 497.32 486.40 493.00C486.98 488.68 486.62 487.06 486.40 484.00C486.18 480.94 486.07 479.60 485.19 476.00C484.30 472.40 482.43 466.61 481.50 464.00C480.57 461.39 480.63 462.16 480.00 461.53C479.37 460.89 478.36 460.66 478.00 460.48C477.64 460.29 478.25 460.20 478.00 460.48ZM413.00 428.77C412.59 429.17 411.47 429.70 410.72 431.00C409.96 432.30 409.37 433.48 408.81 436.00C408.25 438.52 406.43 441.22 407.60 445.00C408.76 448.78 413.20 453.40 415.28 457.00C417.37 460.60 417.94 461.94 419.19 465.00C420.43 468.06 421.23 470.04 422.19 474.00C423.14 477.96 424.08 480.70 424.50 487.00C424.92 493.30 424.92 502.34 424.50 509.00C424.08 515.66 423.32 518.78 422.19 524.00C421.05 529.22 419.43 534.22 418.19 538.00C416.94 541.78 417.08 541.40 415.28 545.00C413.49 548.60 410.33 554.58 408.20 558.00C406.07 561.42 404.38 562.70 403.45 564.00C402.51 565.30 402.90 564.85 403.00 565.25C403.10 565.65 402.20 566.98 404.00 566.25C405.80 565.52 408.96 564.13 413.00 561.20C417.04 558.28 421.53 555.08 426.42 550.00C431.32 544.92 435.65 539.66 440.20 533.00C444.76 526.34 447.58 522.72 451.72 513.00C455.85 503.28 460.00 492.50 463.19 479.00C466.37 465.50 468.36 445.67 469.40 438.00C470.45 430.33 469.43 436.83 469.00 436.38C468.57 435.93 468.80 435.48 467.00 435.50C465.20 435.52 464.22 436.34 459.00 436.50C453.78 436.66 444.12 437.00 438.00 436.40C431.88 435.81 429.50 434.56 425.00 433.19C420.50 431.81 415.16 429.57 413.00 428.77C410.84 427.98 413.41 428.37 413.00 428.77ZM290.07 112.00C290.42 111.98 291.27 111.53 292.00 111.89C292.73 112.25 292.09 109.30 294.11 114.00C296.12 118.70 300.97 131.16 303.19 138.00C305.40 144.84 305.45 146.42 306.40 152.00C307.36 157.58 308.30 162.16 308.50 169.00C308.70 175.84 308.10 183.34 307.50 190.00C306.90 196.66 306.32 200.06 305.19 206.00C304.05 211.94 303.18 216.70 301.19 223.00C299.19 229.30 295.76 237.40 294.11 241.00C292.45 244.60 292.75 242.80 292.00 242.98C291.25 243.16 290.36 243.08 289.93 242.00C289.50 240.92 288.29 241.86 289.60 237.00C290.90 232.14 295.24 222.20 297.19 215.00C299.13 207.80 299.81 201.50 300.40 197.00C301.00 192.50 300.30 192.16 300.50 190.00C300.70 187.84 301.32 190.58 301.50 185.00C301.68 179.42 302.64 168.72 301.50 159.00C300.36 149.28 297.37 139.10 295.19 131.00C293.01 122.90 290.32 117.42 289.40 114.00C288.47 110.58 289.95 112.36 290.07 112.00C290.19 111.64 289.72 112.02 290.07 112.00ZM532.00 383.98C531.78 384.16 530.84 384.46 530.75 385.00C530.67 385.54 529.11 385.20 531.53 387.00C533.95 388.80 540.70 392.15 544.21 395.00C547.71 397.85 549.52 400.66 551.00 402.82C552.48 404.98 552.15 405.17 552.40 407.00C552.66 408.83 552.62 411.20 552.40 413.00C552.18 414.80 551.76 415.56 551.19 417.00C550.61 418.44 550.05 419.74 549.20 421.00C548.36 422.26 548.13 422.71 546.47 424.00C544.82 425.29 541.89 427.21 540.00 428.19C538.11 429.16 538.16 429.15 536.00 429.40C533.84 429.65 529.69 429.29 528.00 429.58C526.31 429.87 526.09 429.30 526.60 431.00C527.10 432.70 528.56 435.81 530.80 439.00C533.03 442.19 537.16 446.21 539.00 448.72C540.84 451.23 540.28 452.06 541.00 452.96C541.72 453.85 539.22 455.10 543.00 453.70C546.78 452.30 557.14 447.77 562.00 445.20C566.86 442.64 567.66 441.36 570.00 439.42C572.34 437.49 572.98 437.07 575.00 434.47C577.02 431.88 579.35 428.15 581.20 425.00C583.06 421.85 583.89 420.60 585.28 417.00C586.67 413.40 588.44 407.37 588.93 405.00C589.41 402.63 589.25 404.59 588.00 403.83C586.75 403.08 585.24 402.01 582.00 400.81C578.76 399.62 576.48 399.53 570.00 397.19C563.52 394.85 552.84 390.19 546.00 387.81C539.16 385.43 534.52 384.67 532.00 383.98C529.48 383.29 532.22 383.79 532.00 383.98ZM240.82 383.00C241.29 383.00 242.94 382.64 243.42 383.00C243.91 383.36 244.53 382.66 243.50 385.00C242.47 387.34 239.64 391.86 237.72 396.00C235.79 400.14 234.27 403.68 232.81 408.00C231.35 412.32 230.90 413.70 229.60 420.00C228.30 426.30 226.33 433.28 225.60 443.00C224.86 452.72 225.16 465.18 225.50 474.00C225.84 482.82 227.29 488.22 227.50 492.00C227.71 495.78 227.09 494.26 226.64 495.00C226.19 495.74 225.48 495.99 225.00 496.11C224.52 496.24 224.39 496.24 224.00 495.68C223.61 495.12 223.61 496.18 222.81 493.00C222.02 489.82 220.37 482.50 219.60 478.00C218.82 473.50 218.70 473.22 218.50 468.00C218.30 462.78 218.30 454.22 218.50 449.00C218.70 443.78 218.64 444.94 219.60 439.00C220.55 433.06 222.51 421.76 223.81 416.00C225.11 410.24 224.66 411.86 226.81 407.00C228.97 402.14 233.27 393.32 235.80 389.00C238.32 384.68 239.92 384.08 240.82 383.00C241.73 381.92 240.35 383.00 240.82 383.00ZM114.50 510.00C114.77 509.99 115.55 509.79 116.00 509.93C116.45 510.07 115.28 508.62 117.00 510.79C118.72 512.97 122.70 518.63 125.58 522.00C128.46 525.37 128.60 525.50 133.00 529.50C137.40 533.50 143.88 539.76 150.00 544.20C156.12 548.65 162.50 551.85 167.00 554.19C171.50 556.52 170.32 555.80 175.00 557.19C179.68 558.57 189.38 560.67 193.00 561.89C196.62 563.12 194.78 563.26 195.11 564.00C195.44 564.74 195.22 565.43 194.84 566.00C194.46 566.57 193.87 566.93 193.00 567.19C192.13 567.44 194.50 568.48 190.00 567.40C185.50 566.32 173.58 563.01 168.00 561.19C162.42 559.37 163.14 559.44 159.00 557.28C154.86 555.13 148.87 551.78 145.00 549.20C141.13 546.63 141.13 546.41 137.53 543.00C133.93 539.59 129.25 535.32 125.00 530.28C120.75 525.24 115.96 518.29 113.89 515.00C111.82 511.71 113.39 512.90 113.50 512.00C113.61 511.10 114.32 510.36 114.50 510.00C114.68 509.64 114.23 510.01 114.50 510.00ZM105.82 388.00C106.12 388.00 107.02 387.64 107.50 388.00C107.98 388.36 108.34 388.38 108.50 390.00C108.66 391.62 108.76 393.76 108.40 397.00C108.04 400.24 106.84 401.34 106.50 408.00C106.16 414.66 106.12 426.26 106.50 434.00C106.88 441.74 106.74 442.90 108.60 451.00C110.45 459.10 113.97 471.08 116.81 479.00C119.66 486.92 122.97 491.58 124.40 495.00C125.84 498.42 124.88 497.17 124.80 498.00C124.73 498.83 124.32 499.30 124.00 499.63C123.68 499.97 123.74 500.34 123.00 499.87C122.26 499.39 121.91 500.40 119.89 497.00C117.88 493.60 114.35 487.12 111.81 481.00C109.28 474.88 107.65 469.84 105.81 463.00C103.97 456.16 102.39 447.86 101.60 443.00C100.80 438.14 101.60 437.98 101.40 436.00C101.21 434.02 100.66 434.88 100.50 432.00C100.34 429.12 100.14 425.04 100.50 420.00C100.86 414.96 102.12 408.68 102.50 404.00C102.88 399.32 102.35 396.52 102.60 394.00C102.85 391.48 103.31 391.08 103.89 390.00C104.47 388.92 105.47 388.36 105.82 388.00C106.17 387.64 105.52 388.00 105.82 388.00ZM162.81 149.00C164.28 148.97 167.69 148.09 171.00 148.81C174.31 149.53 178.05 151.35 181.19 153.00C184.34 154.65 185.91 155.84 188.47 158.00C191.03 160.16 193.69 163.02 195.42 165.00C197.16 166.98 196.89 166.30 198.11 169.00C199.33 171.70 201.22 176.76 202.19 180.00C203.16 183.24 203.28 181.06 203.50 187.00C203.72 192.94 204.21 206.63 203.40 213.00C202.59 219.37 200.15 220.70 199.00 222.39C197.85 224.09 197.45 222.85 197.00 222.42C196.55 221.99 196.57 221.16 196.50 220.00C196.43 218.84 196.06 218.70 196.60 216.00C197.14 213.30 199.17 210.04 199.50 205.00C199.83 199.96 199.34 193.40 198.40 188.00C197.46 182.60 195.72 178.42 194.28 175.00C192.85 171.58 192.82 171.74 190.42 169.00C188.03 166.26 184.14 162.17 181.00 159.80C177.86 157.42 175.70 156.60 173.00 155.81C170.30 155.02 168.27 155.73 166.00 155.40C163.73 155.08 161.51 154.43 160.37 154.00C159.24 153.57 159.75 153.50 159.69 153.00C159.62 152.50 159.44 151.95 160.00 151.23C160.56 150.51 162.30 149.40 162.81 149.00C163.31 148.60 161.33 149.03 162.81 149.00ZM399.23 97.00C399.73 96.98 400.91 96.53 402.00 96.89C403.09 97.25 403.62 97.36 405.28 99.00C406.94 100.64 409.06 102.40 411.20 106.00C413.35 109.60 415.39 114.32 417.19 119.00C418.98 123.68 420.23 128.22 421.19 132.00C422.14 135.78 422.28 136.94 422.50 140.00C422.72 143.06 422.64 147.02 422.40 149.00C422.17 150.98 422.06 150.10 421.21 151.00C420.35 151.90 418.20 152.02 417.66 154.00C417.12 155.98 418.49 159.96 418.19 162.00C417.89 164.04 416.75 164.70 416.00 165.31C415.25 165.93 414.75 165.64 414.00 165.40C413.25 165.17 413.67 167.49 411.83 164.00C410.00 160.51 405.22 150.16 403.81 146.00C402.40 141.84 403.61 142.05 404.00 140.90C404.39 139.75 404.81 139.94 406.00 139.60C407.19 139.25 409.63 139.83 410.62 139.00C411.61 138.17 411.76 137.88 411.50 135.00C411.24 132.12 410.14 126.78 409.19 123.00C408.23 119.22 407.12 116.55 406.19 114.00C405.25 111.45 405.47 111.33 404.00 108.81C402.53 106.29 398.88 102.13 398.02 100.00C397.16 97.87 399.01 97.54 399.23 97.00C399.44 96.46 398.73 97.02 399.23 97.00ZM554.00 356.98C553.69 357.16 552.43 357.59 552.25 358.00C552.07 358.41 552.33 358.79 553.00 359.25C553.67 359.71 555.39 359.90 556.00 360.58C556.61 361.25 556.96 361.84 556.40 363.00C555.85 364.16 553.56 365.92 552.93 367.00C552.30 368.08 552.39 368.10 552.89 369.00C553.39 369.90 554.32 370.92 555.72 372.00C557.11 373.08 559.91 373.92 560.64 375.00C561.38 376.08 559.90 377.10 559.81 378.00C559.72 378.90 557.42 378.35 560.16 380.00C562.89 381.65 569.27 384.81 575.00 387.19C580.73 389.56 588.58 392.11 592.00 393.19C595.42 394.27 593.10 393.43 594.00 393.19C594.90 392.95 596.25 392.42 597.00 391.84C597.75 391.27 597.93 391.05 598.19 390.00C598.44 388.95 599.16 388.57 598.40 386.00C597.65 383.43 595.15 377.80 594.00 375.72C592.85 373.64 592.45 374.58 592.00 374.45C591.55 374.32 591.61 373.46 591.50 375.00C591.39 376.54 591.66 381.20 591.40 383.00C591.15 384.80 590.71 384.63 590.10 385.00C589.49 385.37 588.65 385.43 588.00 385.07C587.35 384.71 586.93 383.91 586.50 383.00C586.07 382.09 585.74 381.44 585.60 380.00C585.45 378.56 585.43 376.14 585.69 375.00C585.94 373.86 586.29 374.03 587.00 373.67C587.71 373.31 589.47 373.66 589.64 373.00C589.82 372.34 589.34 371.30 587.97 370.00C586.59 368.70 585.05 367.45 582.00 365.80C578.95 364.14 576.04 362.40 571.00 360.81C565.96 359.23 557.06 357.67 554.00 356.98C550.94 356.29 554.31 356.79 554.00 356.98ZM65.82 110.00C66.39 109.89 68.24 109.21 69.00 109.39C69.76 109.57 70.02 110.30 70.02 111.00C70.02 111.70 71.02 110.58 69.00 113.28C66.98 115.98 61.70 121.37 58.80 126.00C55.90 130.63 54.73 133.42 52.89 139.00C51.06 144.58 49.40 150.88 48.60 157.00C47.79 163.12 48.58 169.76 48.40 173.00C48.23 176.24 48.04 174.49 47.61 175.00C47.17 175.51 46.60 176.00 46.00 175.82C45.40 175.64 44.73 174.87 44.28 174.00C43.83 173.13 43.64 174.24 43.50 171.00C43.36 167.76 43.08 160.68 43.50 156.00C43.92 151.32 44.86 148.60 45.81 145.00C46.77 141.40 47.20 139.78 48.81 136.00C50.43 132.22 53.14 127.11 54.80 124.00C56.45 120.89 56.02 121.24 58.00 118.72C59.98 116.20 64.41 111.57 65.82 110.00C67.23 108.43 65.25 110.11 65.82 110.00ZM464.00 72.61C463.59 73.22 462.83 73.77 461.72 76.00C460.60 78.23 459.24 81.04 457.81 85.00C456.39 88.96 454.77 94.22 453.81 98.00C452.86 101.78 452.70 102.22 452.50 106.00C452.30 109.78 452.24 116.39 452.69 119.00C453.14 121.61 452.60 120.41 455.00 120.50C457.40 120.59 461.68 119.34 466.00 119.50C470.32 119.66 476.12 121.12 479.00 121.40C481.88 121.69 481.21 121.50 482.00 121.07C482.79 120.64 483.15 120.63 483.40 119.00C483.66 117.37 484.16 116.14 483.40 112.00C482.64 107.86 480.68 100.68 479.19 96.00C477.69 91.32 476.91 89.78 475.11 86.00C473.31 82.22 470.84 77.52 469.20 75.00C467.56 72.48 466.94 72.45 466.00 72.02C465.06 71.59 464.36 72.50 464.00 72.61C463.64 72.71 464.41 71.99 464.00 72.61ZM380.07 453.00C380.49 453.00 380.90 452.28 382.41 453.00C383.92 453.72 386.57 455.43 388.47 457.00C390.38 458.57 391.41 459.56 393.00 461.72C394.59 463.88 395.81 465.71 397.28 469.00C398.76 472.29 400.27 476.76 401.19 480.00C402.11 483.24 402.18 484.30 402.40 487.00C402.62 489.70 402.71 493.02 402.40 495.00C402.09 496.98 401.30 497.45 400.69 498.00C400.07 498.55 399.56 498.43 399.00 498.07C398.44 497.71 397.88 497.99 397.60 496.00C397.31 494.01 398.39 491.68 397.40 487.00C396.42 482.32 393.90 474.32 392.11 470.00C390.31 465.68 389.66 465.70 387.42 463.00C385.19 460.30 381.01 456.80 379.69 455.00C378.37 453.20 380.00 453.36 380.07 453.00C380.14 452.64 379.65 453.00 380.07 453.00ZM487.50 197.00C487.95 196.91 488.29 196.35 490.00 196.50C491.71 196.65 494.97 197.18 497.00 197.81C499.03 198.44 499.79 198.71 501.28 200.00C502.77 201.29 504.18 202.84 505.28 205.00C506.38 207.16 507.06 209.66 507.40 212.00C507.75 214.34 507.80 215.79 507.19 218.00C506.57 220.21 505.47 222.43 504.00 224.28C502.53 226.13 500.98 227.22 499.00 228.28C497.02 229.35 495.34 230.02 493.00 230.19C490.66 230.35 488.15 229.94 486.00 229.19C483.85 228.43 482.51 227.29 481.03 226.00C479.55 224.71 478.73 223.80 477.80 222.00C476.86 220.20 476.03 218.34 475.81 216.00C475.60 213.66 476.20 211.01 476.60 209.00C476.99 206.99 477.03 206.50 478.00 204.81C478.97 203.11 480.29 200.98 482.00 199.58C483.71 198.17 486.51 197.46 487.50 197.00C488.49 196.54 487.05 197.09 487.50 197.00ZM370.59 267.00C371.02 267.07 372.53 266.47 373.00 267.37C373.47 268.27 374.91 268.83 373.19 272.00C371.46 275.17 366.16 281.68 363.42 285.00C360.69 288.32 360.78 288.05 358.00 290.42C355.22 292.80 350.34 296.59 348.00 298.20C345.66 299.82 346.10 299.26 345.00 299.40C343.90 299.55 342.61 299.25 341.90 299.00C341.19 298.75 341.10 298.54 341.08 298.00C341.06 297.46 339.56 298.16 341.79 296.00C344.02 293.84 349.21 289.96 353.47 286.00C357.74 282.04 363.05 276.52 365.50 274.00C367.95 271.48 366.66 272.92 367.11 272.00C367.56 271.08 367.37 269.80 368.00 268.90C368.63 268.00 370.12 267.34 370.59 267.00C371.06 266.66 370.16 266.93 370.59 267.00ZM488.00 358.75C487.79 358.98 487.30 358.88 486.85 360.00C486.40 361.12 485.74 361.94 485.50 365.00C485.26 368.06 485.25 374.30 485.50 377.00C485.75 379.70 484.47 379.03 486.90 380.00C489.33 380.97 495.38 381.95 499.00 382.40C502.62 382.85 504.48 382.72 507.00 382.50C509.52 382.28 511.56 381.64 513.00 381.19C514.44 380.73 514.49 380.54 515.00 379.96C515.51 379.39 515.99 378.92 515.81 378.00C515.63 377.08 516.85 376.60 514.00 374.83C511.15 373.07 503.24 369.90 500.00 368.20C496.76 366.51 497.80 366.99 496.00 365.42C494.20 363.86 491.44 360.70 490.00 359.50C488.56 358.30 488.36 358.89 488.00 358.75C487.64 358.62 488.21 358.53 488.00 358.75ZM475.50 172.00C476.49 171.93 479.35 171.42 481.00 171.60C482.65 171.78 483.87 172.39 484.68 173.00C485.49 173.61 485.43 174.10 485.50 175.00C485.57 175.90 485.52 177.15 485.07 178.00C484.62 178.85 485.35 178.49 483.00 179.72C480.65 180.94 475.60 182.15 472.00 184.80C468.40 187.44 465.16 192.58 463.00 194.42C460.84 196.27 460.79 195.32 460.00 195.07C459.21 194.81 458.85 194.09 458.60 193.00C458.34 191.91 458.02 190.98 458.60 189.00C459.17 187.02 459.56 184.78 461.80 182.00C464.03 179.22 468.53 175.38 471.00 173.58C473.47 171.78 474.69 172.28 475.50 172.00C476.31 171.72 474.51 172.07 475.50 172.00ZM409.58 402.00C410.55 401.98 413.30 401.31 415.00 401.89C416.70 402.47 416.12 403.53 419.00 405.20C421.88 406.88 426.68 409.68 431.00 411.19C435.32 412.70 440.66 412.96 443.00 413.59C445.34 414.21 443.85 414.21 444.00 414.64C444.15 415.08 444.38 415.50 443.84 416.00C443.30 416.50 442.41 417.15 441.00 417.40C439.59 417.66 439.78 418.34 436.00 417.40C432.22 416.46 424.65 414.24 420.00 412.19C415.35 410.13 412.10 407.47 410.16 406.00C408.21 404.53 409.29 404.72 409.19 404.00C409.08 403.28 409.51 402.36 409.58 402.00C409.65 401.64 408.60 402.02 409.58 402.00ZM573.82 414.00C574.21 413.91 575.23 413.32 576.00 413.50C576.77 413.68 577.69 413.65 578.07 415.00C578.45 416.35 579.20 418.03 578.11 421.00C577.02 423.97 573.64 429.10 572.00 431.47C570.36 433.85 570.44 433.39 569.00 434.20C567.56 435.02 565.13 435.83 564.00 435.98C562.87 436.12 562.96 435.54 562.72 435.00C562.49 434.46 561.74 434.39 562.69 433.00C563.64 431.61 566.32 429.41 568.00 427.28C569.68 425.16 570.95 423.58 572.00 421.19C573.05 418.80 573.49 415.29 573.82 414.00C574.14 412.71 573.42 414.09 573.82 414.00ZM224.92 508.00C225.11 507.95 224.69 507.16 226.00 507.70C227.31 508.24 230.33 508.61 232.17 511.00C234.00 513.39 235.41 518.84 236.19 521.00C236.97 523.16 236.60 522.28 236.50 523.00C236.40 523.72 236.26 524.57 235.63 525.00C235.00 525.43 233.83 525.55 233.00 525.40C232.17 525.26 231.90 525.66 231.00 524.21C230.10 522.75 229.08 518.87 228.00 517.32C226.92 515.78 225.55 517.30 225.00 515.63C224.45 513.95 224.93 509.37 224.92 508.00C224.90 506.63 224.72 508.05 224.92 508.00ZM284.62 261.00C285.05 261.07 286.54 260.47 287.00 261.37C287.46 262.27 288.06 263.19 287.19 266.00C286.32 268.81 283.46 274.80 282.17 277.00C280.87 279.20 280.57 278.08 280.00 278.20C279.43 278.31 279.27 278.02 279.00 277.63C278.73 277.23 278.35 277.73 278.50 276.00C278.65 274.27 279.00 270.49 279.81 268.00C280.62 265.51 282.13 263.45 283.00 262.19C283.87 260.93 284.33 261.21 284.62 261.00C284.92 260.79 284.20 260.93 284.62 261.00ZM456.59 240.00C457.38 239.93 459.49 239.35 461.00 239.60C462.51 239.84 464.04 240.74 465.00 241.36C465.96 241.97 466.16 241.97 466.34 243.00C466.52 244.03 466.42 246.13 466.00 247.10C465.58 248.07 464.90 248.17 464.00 248.40C463.10 248.64 462.62 248.90 461.00 248.40C459.38 247.91 456.33 246.62 455.00 245.64C453.67 244.67 453.63 243.84 453.60 243.00C453.56 242.16 454.26 241.54 454.79 241.00C455.33 240.46 456.27 240.18 456.59 240.00C456.91 239.82 455.80 240.07 456.59 240.00ZM395.59 511.00C395.85 510.89 396.51 510.39 397.00 510.39C397.49 510.39 397.89 510.53 398.32 511.00C398.76 511.47 399.21 512.28 399.40 513.00C399.60 513.72 399.81 513.56 399.40 515.00C399.00 516.44 397.78 519.73 397.17 521.00C396.55 522.27 396.57 521.83 396.00 522.07C395.43 522.30 394.60 522.50 394.00 522.31C393.40 522.12 392.94 522.14 392.69 521.00C392.43 519.86 392.40 517.44 392.60 516.00C392.80 514.56 393.26 513.90 393.80 513.00C394.34 512.10 395.27 511.36 395.59 511.00C395.92 510.64 395.34 511.11 395.59 511.00ZM541.00 357.93C540.60 358.13 539.41 358.45 538.79 359.00C538.18 359.55 537.80 360.28 537.60 361.00C537.40 361.72 537.43 362.40 537.69 363.00C537.94 363.60 538.40 364.11 539.00 364.31C539.60 364.51 540.26 364.52 541.00 364.11C541.74 363.69 542.74 362.92 543.11 362.00C543.48 361.08 543.45 359.73 543.07 359.00C542.69 358.27 541.37 358.13 541.00 357.93C540.63 357.74 541.40 357.74 541.00 357.93ZM528.00 364.79C527.79 365.19 526.96 366.24 526.81 367.00C526.66 367.76 526.76 368.43 527.16 369.00C527.55 369.57 528.20 370.01 529.00 370.19C529.80 370.37 531.05 370.39 531.62 370.00C532.20 369.61 532.30 368.92 532.19 368.00C532.08 367.08 531.39 365.61 531.00 364.90C530.61 364.19 530.54 364.10 530.00 364.08C529.46 364.06 528.36 364.67 528.00 364.79C527.64 364.92 528.21 364.40 528.00 364.79ZM545.00 370.58C544.74 370.83 543.88 371.38 543.58 372.00C543.27 372.62 542.89 373.39 543.32 374.00C543.76 374.61 545.08 375.22 546.00 375.40C546.92 375.58 547.93 375.43 548.42 375.00C548.91 374.57 548.86 373.72 548.72 373.00C548.57 372.28 548.09 371.52 547.61 371.00C547.12 370.48 546.47 370.20 546.00 370.12C545.53 370.05 545.18 370.49 545.00 370.58C544.82 370.66 545.26 370.32 545.00 370.58Z"></path>
</svg>